<svg width="1024" height="1024" viewBox="0 0 1024 1024" fill="none" xmlns="http://www.w3.org/2000/svg">
<g clip-path="url(#clip0_2_1014)">
<path d="M567.709 990.516C801.21 990.516 990.5 801.226 990.5 567.725C990.5 334.224 801.21 144.935 567.709 144.935C334.208 144.935 144.918 334.224 144.918 567.725C144.918 801.226 334.208 990.516 567.709 990.516Z" fill="#AAC9F3"/>
<g filter="url(#filter0_d_2_1014)">
<mask id="mask0_2_1014" style="mask-type:luminance" maskUnits="userSpaceOnUse" x="320" y="179" width="363" height="617">
<path d="M682.571 179.149H320.877V795.006H682.571V179.149Z" fill="white"/>
</mask>
<g mask="url(#mask0_2_1014)">
<path d="M576.742 231.598C576.742 260.567 553.559 284.049 524.961 284.049C496.36 284.049 473.177 260.565 473.177 231.598C473.177 202.629 496.362 179.146 524.961 179.146C553.559 179.146 576.742 202.63 576.742 231.598Z" fill="#196B63"/>
<path d="M446.417 391.802C446.417 391.802 404.098 614.374 394.986 629.438C387.194 642.318 326.386 743.377 326.386 743.377C313.404 764.937 325.706 780.353 339.46 788.398C351.168 795.241 376.336 793.545 384.658 779.17C384.658 779.17 452.123 672.822 459.484 649.889C464.58 634.008 476.422 568.141 476.422 568.141C476.422 568.141 541.975 636.623 549.155 648.882C558.207 664.327 575.06 772.004 575.06 772.004C579.093 791.164 597.128 797.411 615.912 794.205C630.741 791.678 646.255 781.511 642.814 762.923C642.814 762.923 627.824 638.075 615.912 617.59C601.694 593.142 525.244 509.602 525.244 509.602L547.161 410.699C547.161 410.699 561.233 439.587 571.077 452.077C582.27 466.281 652.775 507.585 652.775 507.585C659.242 511.978 673.886 509.557 679.678 498.502C684.326 489.628 684.106 475.254 673.7 468.224C673.7 468.224 615.594 431.275 601.962 419.781C586.801 407.023 556.125 321.91 556.125 321.91C546.609 308.648 533.597 294.016 511.289 293.651C488.805 293.284 477.551 305.83 467.449 312.826C467.449 312.826 381.319 376.555 372.797 389.527C364.222 402.577 348.884 500.54 348.884 500.54C346.479 511.703 350.784 520.678 363.828 523.755C379.79 527.514 391.231 517.447 392.722 509.624C392.722 509.624 402.557 432.246 409.66 420.813C417.931 407.501 446.41 391.819 446.41 391.819L446.417 391.802Z" fill="#196B63"/>
</g>
</g>
<g filter="url(#filter1_d_2_1014)">
<path d="M584.543 75.6833C588.252 56.6044 575.794 37.9922 556.492 35.7233C457.819 24.1256 357.664 44.1291 270.667 93.3496C173.428 148.365 99.0092 236.271 60.7976 341.257C22.5859 446.244 23.0885 561.421 62.2151 666.068C97.2202 759.693 161.085 839.393 244.127 893.935C260.372 904.605 281.879 898.353 291.302 881.354C300.724 864.354 294.477 843.063 278.375 832.178C209.929 785.916 157.276 719.339 128.142 641.419C94.8839 552.467 94.4567 454.568 126.937 365.33C159.416 276.092 222.672 201.371 305.326 154.608C377.731 113.643 460.861 96.4875 543.031 105.044C562.362 107.058 580.833 94.7621 584.543 75.6833Z" fill="#1652A1"/>
</g>
<g filter="url(#filter2_d_2_1014)">
<path d="M650.214 98.341C656.842 80.2156 676.955 70.7484 694.566 78.6461C739.968 99.0087 781.895 126.465 818.729 160.038C864.156 201.451 900.946 251.359 926.988 306.915C953.025 362.47 967.816 422.584 970.504 483.824C973.192 545.066 963.725 606.231 942.649 663.833C921.578 721.435 889.304 774.345 847.675 819.538C806.046 864.73 755.873 901.325 700.025 927.23C644.183 953.14 583.751 967.847 522.189 970.52C472.36 972.686 422.577 966.928 374.704 953.536C356.029 948.311 346.653 928.017 353.317 909.805C359.948 891.681 379.965 882.497 398.616 887.463C437.812 897.893 478.448 902.336 519.121 900.572C571.448 898.299 622.813 885.796 670.283 863.777C717.753 841.753 760.394 810.647 795.781 772.234C831.164 733.821 858.599 688.849 876.512 639.883C894.426 590.923 902.471 538.932 900.184 486.878C897.901 434.824 885.33 383.727 863.198 336.505C841.062 289.283 809.795 246.86 771.176 211.66C741.219 184.354 707.298 161.808 670.616 144.75C653.034 136.574 643.547 116.553 650.214 98.341Z" fill="#1652A1"/>
</g>
</g>
<defs>
<filter id="filter0_d_2_1014" x="315.886" y="174.149" width="381.686" height="635.855" filterUnits="userSpaceOnUse" color-interpolation-filters="sRGB">
<feFlood flood-opacity="0" result="BackgroundImageFix"/>
<feColorMatrix in="SourceAlpha" type="matrix" values="0 0 0 0 0 0 0 0 0 0 0 0 0 0 0 0 0 0 127 0" result="hardAlpha"/>
<feOffset dx="5" dy="5"/>
<feGaussianBlur stdDeviation="5"/>
<feComposite in2="hardAlpha" operator="out"/>
<feColorMatrix type="matrix" values="0 0 0 0 0 0 0 0 0 0 0 0 0 0 0 0 0 0 0.25 0"/>
<feBlend mode="normal" in2="BackgroundImageFix" result="effect1_dropShadow_2_1014"/>
<feBlend mode="normal" in="SourceGraphic" in2="effect1_dropShadow_2_1014" result="shape"/>
</filter>
<filter id="filter1_d_2_1014" x="17.5" y="22.5161" width="602.696" height="916.677" filterUnits="userSpaceOnUse" color-interpolation-filters="sRGB">
<feFlood flood-opacity="0" result="BackgroundImageFix"/>
<feColorMatrix in="SourceAlpha" type="matrix" values="0 0 0 0 0 0 0 0 0 0 0 0 0 0 0 0 0 0 127 0" result="hardAlpha"/>
<feOffset dx="10" dy="15"/>
<feGaussianBlur stdDeviation="12.5"/>
<feComposite in2="hardAlpha" operator="out"/>
<feColorMatrix type="matrix" values="0 0 0 0 0 0 0 0 0 0 0 0 0 0 0 0 0 0 0.25 0"/>
<feBlend mode="normal" in2="BackgroundImageFix" result="effect1_dropShadow_2_1014"/>
<feBlend mode="normal" in="SourceGraphic" in2="effect1_dropShadow_2_1014" result="shape"/>
</filter>
<filter id="filter2_d_2_1014" x="336.176" y="65.8398" width="669.775" height="945.125" filterUnits="userSpaceOnUse" color-interpolation-filters="sRGB">
<feFlood flood-opacity="0" result="BackgroundImageFix"/>
<feColorMatrix in="SourceAlpha" type="matrix" values="0 0 0 0 0 0 0 0 0 0 0 0 0 0 0 0 0 0 127 0" result="hardAlpha"/>
<feOffset dx="10" dy="15"/>
<feGaussianBlur stdDeviation="12.5"/>
<feComposite in2="hardAlpha" operator="out"/>
<feColorMatrix type="matrix" values="0 0 0 0 0 0 0 0 0 0 0 0 0 0 0 0 0 0 0.25 0"/>
<feBlend mode="normal" in2="BackgroundImageFix" result="effect1_dropShadow_2_1014"/>
<feBlend mode="normal" in="SourceGraphic" in2="effect1_dropShadow_2_1014" result="shape"/>
</filter>
<clipPath id="clip0_2_1014">
<rect width="958" height="958" fill="white" transform="translate(32.5 32.5161)"/>
</clipPath>
</defs>
</svg>
